<?xml version="1.0" standalone="no"?>
<!DOCTYPE svg PUBLIC "-//W3C//DTD SVG 20010904//EN"
 "http://www.w3.org/TR/2001/REC-SVG-20010904/DTD/svg10.dtd">
<svg version="1.0" xmlns="http://www.w3.org/2000/svg"
 width="300.000000pt" height="300.000000pt" viewBox="0 0 300.000000 300.000000"
 preserveAspectRatio="xMidYMid meet">
<metadata>
Created by potrace 1.10, written by Peter Selinger 2001-2011
</metadata>
<g transform="translate(0.000000,300.000000) scale(0.100000,-0.100000)"
fill="#000000" stroke="none">
<path d="M370 1733 l0 -1138 85 0 85 0 0 603 0 602 285 0 285 0 0 80 0 80
-285 0 -285 0 0 375 0 375 350 0 350 0 0 80 0 80 -435 0 -435 0 0 -1137z m835
1057 l0 -35 -320 -5 c-176 -3 -328 -9 -338 -14 -10 -5 -22 -17 -27 -27 -6 -10
-10 -162 -10 -372 0 -343 1 -355 21 -380 l20 -27 262 -2 262 -3 3 -39 c2 -24
-2 -42 -10 -47 -7 -5 -127 -9 -266 -9 -239 0 -253 -1 -272 -20 -20 -20 -20
-33 -20 -587 0 -313 -4 -574 -9 -581 -5 -9 -24 -12 -52 -10 l-44 3 -3 1085
c-1 597 0 1091 3 1098 3 10 89 12 402 10 l398 -3 0 -35z"/>
<path d="M1330 1733 l0 -1138 82 3 83 3 0 377 0 377 145 242 c80 133 147 242
150 242 3 1 70 -169 149 -376 79 -208 187 -489 240 -625 l96 -248 93 0 c71 0
93 3 89 13 -3 6 -102 260 -220 562 -118 303 -239 611 -268 685 -29 74 -53 149
-53 165 0 22 56 121 198 355 109 179 225 364 256 413 l58 87 -102 0 -101 0
-141 -238 c-78 -130 -228 -383 -334 -562 -223 -377 -237 -400 -250 -400 -7 0
-10 212 -10 600 l0 600 -80 0 -80 0 0 -1137z m1016 1092 c3 -8 -3 -27 -14 -42
-11 -15 -76 -120 -144 -233 -69 -113 -157 -258 -197 -323 -40 -66 -82 -139
-92 -163 -23 -51 -20 -68 40 -221 175 -442 461 -1185 461 -1196 0 -18 -43 -27
-79 -18 -17 5 -32 21 -45 46 -17 37 -139 354 -342 890 -101 265 -125 307 -162
284 -18 -12 -201 -300 -275 -436 l-32 -58 -5 -360 -5 -360 -45 0 -45 0 0 1095
0 1095 45 0 45 0 5 -571 c5 -590 6 -604 45 -604 33 0 42 14 533 845 139 235
183 308 200 328 19 22 100 24 108 2z"/>
<path d="M2335 1859 c0 -159 2 -289 3 -289 9 0 133 73 138 81 9 15 -14 10 -53
-11 -21 -11 -43 -20 -50 -20 -10 0 -13 52 -13 235 0 187 3 235 13 235 7 0 32
-9 55 -20 22 -11 45 -20 50 -20 6 0 13 -7 16 -16 3 -8 11 -12 16 -9 12 8 -6
35 -22 35 -6 0 -22 8 -36 18 -15 10 -47 30 -72 44 l-45 26 0 -289z"/>
<path d="M2491 2128 c0 -25 17 -71 18 -50 2 26 46 10 169 -62 70 -40 154 -89
187 -108 33 -19 61 -41 63 -49 2 -12 -55 -53 -136 -96 -13 -7 -61 -35 -105
-62 -45 -27 -99 -57 -120 -67 -38 -18 -39 -18 -52 0 -13 17 -14 15 -20 -17 -4
-20 -5 -40 -4 -44 2 -5 117 57 256 137 l251 147 -211 121 c-117 67 -231 134
-254 148 l-43 25 1 -23z"/>
<path d="M2497 1686 c-11 -27 1 -33 21 -11 9 10 12 15 5 11 -6 -3 -13 -1 -15
6 -3 7 -7 5 -11 -6z"/>
<path d="M1930 352 c0 -26 3 -28 30 -24 24 3 30 9 30 28 0 20 -5 24 -30 24
-26 0 -30 -4 -30 -28z"/>
<path d="M364 285 c-51 -35 -57 -137 -10 -183 34 -35 105 -36 141 -2 34 32 32
48 -5 42 -17 -2 -33 -8 -36 -13 -8 -13 -48 -11 -62 3 -7 7 -12 20 -12 29 0 15
10 17 75 15 67 -2 75 0 75 16 0 31 -27 86 -48 97 -29 16 -94 14 -118 -4z m94
-37 c25 -25 13 -38 -33 -38 -30 0 -45 4 -45 13 0 19 21 37 45 37 12 0 26 -5
33 -12z"/>
<path d="M595 275 c-20 -19 -25 -34 -25 -75 0 -67 21 -105 65 -120 30 -10 41
-9 72 7 21 10 43 29 50 43 12 23 11 25 -13 28 -18 2 -31 -3 -41 -17 -29 -42
-83 -10 -83 49 0 31 26 70 46 70 8 0 23 -9 34 -20 20 -20 70 -28 70 -11 0 5
-12 23 -26 40 -22 27 -32 31 -75 31 -40 0 -55 -5 -74 -25z"/>
<path d="M847 289 c-9 -5 -24 -23 -32 -39 -50 -96 32 -202 130 -170 51 17 75
53 75 112 0 41 -5 54 -29 79 -25 24 -37 29 -78 29 -26 0 -56 -5 -66 -11z m98
-43 c27 -20 27 -92 0 -112 -43 -31 -85 -5 -85 53 0 61 43 90 85 59z"/>
<path d="M1065 190 l-1 -110 28 0 28 0 0 74 c0 79 13 106 50 106 31 0 43 -36
37 -112 l-6 -68 30 0 29 0 0 93 c0 78 -3 97 -18 110 -23 21 -86 22 -106 1 -15
-14 -16 -14 -16 0 0 11 -9 16 -27 16 l-28 0 0 -110z"/>
<path d="M1339 272 c-27 -24 -32 -36 -33 -74 -2 -78 38 -122 109 -122 71 0
111 44 109 122 -1 38 -6 50 -33 74 -44 39 -108 39 -152 0z m111 -32 c24 -24
26 -77 3 -102 -36 -40 -93 -7 -93 54 0 30 31 68 55 68 8 0 24 -9 35 -20z"/>
<path d="M1570 190 l0 -110 30 0 31 0 -2 81 c-2 61 1 83 12 90 43 27 61 -2 57
-96 l-3 -75 30 0 30 0 -3 69 c-4 76 8 111 38 111 30 0 42 -35 38 -111 l-3 -69
28 0 27 0 0 88 c0 107 -13 132 -67 132 -20 0 -44 -7 -53 -15 -15 -14 -18 -14
-30 0 -17 20 -69 19 -92 -2 -17 -15 -18 -15 -18 0 0 11 -8 17 -25 17 l-25 0 0
-110z"/>
<path d="M1930 190 l0 -110 30 0 30 0 0 110 0 110 -30 0 -30 0 0 -110z"/>
<path d="M2055 268 c-24 -28 -27 -39 -23 -86 6 -71 38 -105 99 -105 35 0 48 6
71 32 15 17 28 36 28 41 0 19 -55 11 -68 -10 -16 -25 -48 -26 -62 -1 -14 27
-13 94 2 109 18 18 46 14 60 -8 16 -24 68 -28 68 -5 0 9 -11 27 -25 40 -19 20
-34 25 -74 25 -43 0 -53 -4 -76 -32z"/>
<path d="M2292 284 c-26 -18 -30 -65 -7 -84 9 -7 39 -21 68 -30 62 -20 69 -44
14 -48 -26 -2 -39 1 -43 12 -8 20 -64 22 -64 3 0 -40 83 -72 142 -56 44 11 64
43 54 82 -5 21 -19 30 -71 47 -70 23 -81 43 -27 48 22 2 34 -2 38 -12 4 -10
18 -16 35 -16 23 0 27 3 22 18 -14 39 -35 52 -87 52 -31 0 -61 -6 -74 -16z"/>
</g>
</svg>
